<svg width="401" height="400" viewBox="0 0 401 400" fill="none" xmlns="http://www.w3.org/2000/svg">
    <path fill-rule="evenodd" clip-rule="evenodd"
        d="M215.057 328.543C207.704 333.847 200.591 337.699 200.482 337.758C200.482 337.758 207.647 333.889 215.057 328.543Z"
        fill="white" />
    <path fill-rule="evenodd" clip-rule="evenodd"
        d="M173.76 317.797C182.079 327.82 200.482 337.758 200.482 337.758C200.482 337.758 218.884 327.82 227.202 317.797C232.275 311.685 233.855 306.252 235.481 300.658C236.925 295.688 238.407 290.591 242.409 284.778C254.224 267.615 283.686 248.064 283.686 248.064L267.753 233.473L399.984 198.042C387.281 126.338 280.873 62.2417 200.481 62.2417C120.088 62.2417 13.6821 126.338 0.978516 198.042L133.21 233.473L117.277 248.064C117.277 248.064 146.739 267.615 158.554 284.778C162.556 290.591 164.038 295.688 165.482 300.658C167.108 306.252 168.687 311.685 173.76 317.797ZM200.481 275.992L179.373 254.884L200.481 233.776L221.589 254.884L200.481 275.992Z"
        fill="white" />
</svg>