<svg width="400" height="400" viewBox="0 0 400 400" fill="none" xmlns="http://www.w3.org/2000/svg">
    <path fill-rule="evenodd" clip-rule="evenodd"
        d="M206.44 333.973L206.38 334.01C206.4 333.997 206.42 333.985 206.44 333.973ZM212.04 330.321C211.922 330.402 211.805 330.483 211.687 330.563C211.684 330.565 211.681 330.567 211.677 330.569C211.674 330.572 211.671 330.574 211.668 330.576C211.67 330.574 211.666 330.577 211.668 330.576C211.67 330.574 211.674 330.572 211.677 330.569C211.681 330.567 211.685 330.564 211.687 330.563C211.695 330.558 211.702 330.553 211.71 330.548C211.776 330.503 211.842 330.458 211.908 330.412C211.952 330.382 211.996 330.351 212.04 330.321Z"
        fill="white" />
    <path
        d="M199.998 62.2417C280.39 62.2417 386.798 126.338 399.502 198.041L267.271 233.473L283.204 248.064C283.204 248.064 277.469 251.87 270.045 257.597L100.781 88.3335C133.05 72.0693 168.519 62.2418 199.998 62.2417Z"
        fill="white" />
    <path fill-rule="evenodd" clip-rule="evenodd"
        d="M211.687 330.563C211.684 330.565 211.681 330.567 211.677 330.569C211.674 330.572 211.671 330.574 211.668 330.576C211.664 330.578 211.657 330.582 211.653 330.585C211.651 330.587 211.648 330.589 211.645 330.591C211.639 330.594 211.631 330.6 211.626 330.604L211.645 330.591C211.648 330.589 211.651 330.587 211.653 330.585C211.657 330.582 211.664 330.578 211.668 330.576C211.671 330.574 211.674 330.572 211.677 330.569C211.68 330.568 211.685 330.564 211.687 330.563Z"
        fill="white" />
    <path fill-rule="evenodd" clip-rule="evenodd"
        d="M212.04 330.321C211.902 330.416 211.763 330.51 211.626 330.604L211.645 330.591L211.653 330.585L211.668 330.576L211.677 330.569L211.687 330.563C211.805 330.483 211.922 330.402 212.04 330.321Z"
        fill="white" />
    <path fill-rule="evenodd" clip-rule="evenodd"
        d="M289.342 347.438C294.223 352.32 302.138 352.32 307.019 347.438C311.901 342.557 311.901 334.642 307.019 329.761L32.7274 55.4688C27.8458 50.5872 19.9313 50.5872 15.0497 55.4688C10.1681 60.3503 10.1681 68.2649 15.0497 73.1465L57.5505 115.647C27.8593 138.939 5.85147 167.814 0.496094 198.041L132.728 233.473L116.795 248.064C116.895 248.131 146.277 267.645 158.072 284.778C162.074 290.59 163.555 295.687 165 300.656C166.626 306.25 168.205 311.684 173.278 317.796C180.557 326.566 195.556 335.272 199.192 337.312L200 337.758C200.01 337.753 200.413 337.533 201.123 337.131C201.14 337.122 201.156 337.113 201.173 337.103L201.201 337.088L201.248 337.062C201.273 337.048 201.299 337.033 201.325 337.017L201.379 336.987L201.456 336.943C201.533 336.899 201.612 336.853 201.695 336.806C201.767 336.765 201.841 336.722 201.918 336.677L202.162 336.536L202.272 336.472L202.412 336.392C202.563 336.304 202.72 336.214 202.882 336.119C203.378 335.828 203.928 335.504 204.521 335.147C204.983 334.869 205.469 334.571 205.979 334.256L206.062 334.206C206.114 334.173 206.166 334.141 206.219 334.108L206.239 334.096L206.38 334.01L206.44 333.973L206.46 333.96L206.512 333.928L206.716 333.801L206.878 333.7C207.243 333.471 207.618 333.235 208 332.991C208.019 332.978 208.041 332.964 208.062 332.951L208.092 332.932C208.8 332.48 209.534 332.003 210.287 331.503L210.432 331.407L210.591 331.301L210.725 331.211L210.841 331.133C211.095 330.963 211.35 330.791 211.607 330.617L211.626 330.604C211.763 330.51 211.902 330.416 212.04 330.321L212.086 330.29C212.382 330.087 212.68 329.881 212.979 329.672C213.048 329.624 213.119 329.576 213.189 329.527L213.2 329.519L213.215 329.508L213.227 329.499C213.236 329.493 213.245 329.486 213.254 329.48C218.124 326.063 223.283 321.937 226.72 317.796C231.793 311.684 233.372 306.251 234.998 300.658C235.548 298.767 236.103 296.857 236.8 294.897L289.342 347.438ZM199.998 275.992L208.947 267.044L187.839 245.936L178.892 254.884L199.998 275.992Z"
        fill="white" />
</svg>