<svg width="1192" height="1080" viewBox="0 0 1192 1080" fill="none" xmlns="http://www.w3.org/2000/svg">
    <path
        d="M362.849 801.547L204.056 954.422L0.429688 815.981L72.2635 690.445L72.4396 689.754L75.4998 378.059L223.108 590.636L225.505 675.943L362.849 801.547Z"
        fill="url(#paint0_linear_820_1554)" />
    <path d="M227.536 982.195L426.084 1090.05H312.843L227.536 982.195Z" fill="url(#paint1_linear_820_1554)" />
    <path
        d="M180.536 164.412L76.6914 335.419L95.811 -111.833L437.634 140.594L404.473 214.92L105.466 -86.7013L180.536 164.412Z"
        fill="url(#paint2_linear_820_1554)" />
    <path d="M372.869 297.843L475.156 660.736L341.035 582.538H232.316L79.7652 362.853L372.869 297.843Z"
        fill="url(#paint3_linear_820_1554)" />
    <path
        d="M449.889 1089.04L449.957 1089.14L214.523 961.247L374.683 807.072L484.756 785.731L482.644 918.797V918.81L585.608 1002.11L449.889 1089.04Z"
        fill="url(#paint4_linear_820_1554)" />
    <path d="M596.008 891.796L694.408 915.235L596.008 994.855L497.607 915.235L596.008 891.796Z"
        fill="url(#paint5_linear_820_1554)" />
    <path d="M596.008 1009.93L731.009 1096.41L596.008 1191.83L460.992 1096.4L596.008 1009.93Z"
        fill="url(#paint6_linear_820_1554)" />
    <path
        d="M383.702 291.384L449.686 143.506L596.008 94.0681L742.316 143.506L808.3 291.384L701.693 669.565L695.031 783.362L696.927 903.306L596.008 879.271L495.074 903.306L496.984 783.362L490.308 669.565L383.702 291.384Z"
        fill="url(#paint7_linear_820_1554)" />
    <path d="M765.931 1090.05L964.466 982.195L879.172 1090.05H765.931Z" fill="url(#paint8_linear_820_1554)" />
    <path
        d="M817.332 807.072L977.479 961.247L742.072 1089.13L742.126 1089.04L606.407 1002.11L709.371 918.81L709.357 918.797L707.259 785.731L817.318 807.072H817.332Z"
        fill="url(#paint9_linear_820_1554)" />
    <path d="M819.146 297.857L1112.24 362.839L959.686 582.538H850.967L716.846 660.736L819.146 297.857Z"
        fill="url(#paint10_linear_820_1554)" />
    <path
        d="M787.528 214.92L754.367 140.594L1096.19 -111.833L1115.32 335.433L1011.47 164.412L1086.55 -86.7013L787.528 214.92Z"
        fill="url(#paint11_linear_820_1554)" />
    <path
        d="M1191.57 815.981L987.959 954.436L829.153 801.533L966.497 675.943L968.894 590.649L1116.52 378.045L1119.55 689.037L1119.56 689.754L1191.57 815.981Z"
        fill="url(#paint12_linear_820_1554)" />
    <defs>
        <linearGradient id="paint0_linear_820_1554" x1="596.001" y1="-111.833" x2="596.001" y2="1191.83"
            gradientUnits="userSpaceOnUse">
            <stop stop-color="#1A1A1A" />
            <stop offset="0.947115" stop-color="#141414" />
        </linearGradient>
        <linearGradient id="paint1_linear_820_1554" x1="596.001" y1="-111.833" x2="596.001" y2="1191.83"
            gradientUnits="userSpaceOnUse">
            <stop stop-color="#1A1A1A" />
            <stop offset="0.947115" stop-color="#141414" />
        </linearGradient>
        <linearGradient id="paint2_linear_820_1554" x1="596.001" y1="-111.833" x2="596.001" y2="1191.83"
            gradientUnits="userSpaceOnUse">
            <stop stop-color="#1A1A1A" />
            <stop offset="0.947115" stop-color="#141414" />
        </linearGradient>
        <linearGradient id="paint3_linear_820_1554" x1="596.001" y1="-111.833" x2="596.001" y2="1191.83"
            gradientUnits="userSpaceOnUse">
            <stop stop-color="#1A1A1A" />
            <stop offset="0.947115" stop-color="#141414" />
        </linearGradient>
        <linearGradient id="paint4_linear_820_1554" x1="596.001" y1="-111.833" x2="596.001" y2="1191.83"
            gradientUnits="userSpaceOnUse">
            <stop stop-color="#1A1A1A" />
            <stop offset="0.947115" stop-color="#141414" />
        </linearGradient>
        <linearGradient id="paint5_linear_820_1554" x1="596.001" y1="-111.833" x2="596.001" y2="1191.83"
            gradientUnits="userSpaceOnUse">
            <stop stop-color="#1A1A1A" />
            <stop offset="0.947115" stop-color="#141414" />
        </linearGradient>
        <linearGradient id="paint6_linear_820_1554" x1="596.001" y1="-111.833" x2="596.001" y2="1191.83"
            gradientUnits="userSpaceOnUse">
            <stop stop-color="#1A1A1A" />
            <stop offset="0.947115" stop-color="#141414" />
        </linearGradient>
        <linearGradient id="paint7_linear_820_1554" x1="596.001" y1="-111.833" x2="596.001" y2="1191.83"
            gradientUnits="userSpaceOnUse">
            <stop stop-color="#1A1A1A" />
            <stop offset="0.947115" stop-color="#141414" />
        </linearGradient>
        <linearGradient id="paint8_linear_820_1554" x1="596.001" y1="-111.833" x2="596.001" y2="1191.83"
            gradientUnits="userSpaceOnUse">
            <stop stop-color="#1A1A1A" />
            <stop offset="0.947115" stop-color="#141414" />
        </linearGradient>
        <linearGradient id="paint9_linear_820_1554" x1="596.001" y1="-111.833" x2="596.001" y2="1191.83"
            gradientUnits="userSpaceOnUse">
            <stop stop-color="#1A1A1A" />
            <stop offset="0.947115" stop-color="#141414" />
        </linearGradient>
        <linearGradient id="paint10_linear_820_1554" x1="596.001" y1="-111.833" x2="596.001" y2="1191.83"
            gradientUnits="userSpaceOnUse">
            <stop stop-color="#1A1A1A" />
            <stop offset="0.947115" stop-color="#141414" />
        </linearGradient>
        <linearGradient id="paint11_linear_820_1554" x1="596.001" y1="-111.833" x2="596.001" y2="1191.83"
            gradientUnits="userSpaceOnUse">
            <stop stop-color="#1A1A1A" />
            <stop offset="0.947115" stop-color="#141414" />
        </linearGradient>
        <linearGradient id="paint12_linear_820_1554" x1="596.001" y1="-111.833" x2="596.001" y2="1191.83"
            gradientUnits="userSpaceOnUse">
            <stop stop-color="#1A1A1A" />
            <stop offset="0.947115" stop-color="#141414" />
        </linearGradient>
    </defs>
</svg>