<svg width="64" height="64" viewBox="0 0 64 64" fill="none" xmlns="http://www.w3.org/2000/svg">
    <path
        d="M57.702 39.3515V39.3172L57.5529 24.0501L57.4945 21.9586L42.9548 20.113L42.4228 19.7946L40.954 16.5063L41.4013 16.0408L56.082 1.23515L52.3947 13.5625L57.4945 21.9586L56.5555 0L39.7752 12.3938L39.1828 12.5348L31.9996 10.1089L24.8164 12.5348L24.2261 12.3938L7.44578 0L6.50683 21.9566L11.6046 13.5625L7.91929 1.23515L22.598 16.0408L23.0876 16.4116L21.5785 19.7946L21.0465 20.113L6.50683 21.9566L6.4484 24.0501L6.29728 39.3515L6.28922 39.3857L4.75586 45.5494L12.7591 52.3457L13.9117 53.7078L18.0987 59.003H23.6579L25.0985 59.134H25.1005L25.3726 59.3153L31.9996 64L38.6267 59.3153L38.9008 59.134L40.3414 59.003H45.9006L50.0876 53.7078L51.2422 52.3457L50.7263 52.6802L50.9843 52.5129L51.2422 52.3457L59.2434 45.5494L57.702 39.3515ZM27.1699 50.4215L31.9996 49.2709L36.8314 50.4215L31.9996 54.3304L27.1699 50.4215ZM13.8109 38.6745L13.6941 34.4854L14.1454 34.0885H19.4829L26.0677 37.9269L26.8112 38.3601L27.1396 43.9475L26.5392 44.0644L21.1352 45.1121L20.5549 44.8401L13.8109 38.6745ZM42.8661 45.1121L37.4641 44.0644L36.8637 43.9475L37.1901 38.3601L37.9336 37.9269L44.5184 34.0885H49.8559L50.3072 34.4874L50.1904 38.6745L50.0977 38.7591L43.4484 44.8401L42.8681 45.1121H42.8661Z"
        fill="var(--black-1)" />
</svg>