<svg width="34" height="34" viewBox="0 0 34 34" fill="none" xmlns="http://www.w3.org/2000/svg">
    <rect x="0.25" y="0.25" width="33.5" height="33.5" rx="4.75" fill="#d13a3a" />
    <rect x="0.25" y="0.25" width="33.5" height="33.5" rx="4.75" stroke="#fe4d4d" stroke-width="0.5" />
    <path
        d="M16.5604 9.16859C16.5604 8.92622 16.7569 8.72974 16.9993 8.72974C17.2417 8.72974 17.4382 8.92622 17.4382 9.1686V12.0251C17.4382 12.6871 17.5629 13.3432 17.8057 13.959C18.4543 15.6035 19.7792 16.8894 21.4424 17.4885L23.1653 18.1091C23.4122 18.1981 23.4122 18.5474 23.1653 18.6363C20.4169 19.6264 18.253 21.7903 17.2629 24.5387C17.1739 24.7857 16.8247 24.7857 16.7357 24.5387C15.7456 21.7903 13.5817 19.6264 10.8333 18.6363C10.5863 18.5474 10.5863 18.1981 10.8333 18.1091L12.5562 17.4885C14.2194 16.8894 15.5443 15.6035 16.1928 13.959C16.4357 13.3432 16.5604 12.6871 16.5604 12.0251V9.16859Z"
        fill="#E6EFFF" stroke="#E6EFFF" stroke-width="0.5" />
</svg>