<svg width="381" height="381" viewBox="0 0 381 381" fill="none" xmlns="http://www.w3.org/2000/svg">
    <path
        d="M297.039 0.0898589C298.42 0.089859 299.539 1.20915 299.539 2.58986V125.59C299.539 126.971 298.411 128.092 297.03 128.066C228.33 126.745 172.884 71.2989 171.563 2.59872C171.537 1.21826 172.658 0.0898535 174.039 0.0898535L297.039 0.0898589Z"
        fill="currentColor" />
    <path
        d="M171.539 150.59C171.539 149.209 172.658 148.09 174.039 148.09L297.039 148.09C298.42 148.09 299.542 149.218 299.515 150.599C298.194 219.299 242.748 274.745 174.048 276.066C172.667 276.092 171.539 274.971 171.539 273.59L171.539 150.59Z"
        fill="currentColor" />
    <path
        d="M80.5391 2.58983C80.5391 1.20912 81.6584 0.0898438 83.0391 0.0898438H149.039C150.42 0.0898438 151.539 1.20913 151.539 2.58984V377.59C151.539 378.971 150.42 380.09 149.039 380.09H83.0391C81.6584 380.09 80.5391 378.971 80.5391 377.59V2.58983Z"
        fill="currentColor" />
</svg>